<svg width="300" height="679" viewBox="18 0 390 301" fill="none" xmlns="http://www.w3.org/2000/svg">
<path d="M69 76H128C127.833 76 127.5 65.8 127.5 25C127.5 61.0255 88.5 74.0106 69 76Z" fill="#E2BE7F"/>
<path d="M351 76H292C292.167 76 292.5 65.8 292.5 25C292.5 61.0255 331.5 74.0106 351 76Z" fill="#E2BE7F"/>
<path d="M127 30C127 13.4315 140.431 0 157 0H263C279.569 0 293 13.4315 293 30V90H127V30Z" fill="#E2BE7F"/>
<path d="M18 106C18 89.4315 31.4315 76 48 76H378C394.569 76 408 89.4315 408 106V261C408 283.091 390.091 301 368 301H58C35.9086 301 18 283.091 18 261V106Z" fill="#E2BE7F"/>
</svg>
